<svg width="291" height="287" xmlns="http://www.w3.org/2000/svg" xmlns:xlink="http://www.w3.org/1999/xlink" xml:space="preserve" overflow="hidden"><defs><clipPath id="clip0"><rect x="329" y="1835" width="291" height="287"/></clipPath><clipPath id="clip1"><rect x="394" y="1897" width="94" height="96"/></clipPath><clipPath id="clip2"><rect x="394" y="1897" width="94" height="96"/></clipPath></defs><g clip-path="url(#clip0)" transform="translate(-329 -1835)"><g clip-path="url(#clip1)"><g clip-path="url(#clip2)"><g><path d="M30.2954 13.8125C30.2954 7.45873 25.1387 2.30208 18.785 2.30208 12.4312 2.30208 7.27457 7.45873 7.27457 13.8125 7.27457 18.9691 10.6816 23.297 15.3779 24.6783L15.3779 35.0837C10.6816 36.557 7.27457 40.8849 7.27457 45.9495 7.27457 51.0141 10.6816 55.4341 15.3779 56.8153L15.3779 67.2207C10.6816 68.694 7.27457 73.0219 7.27457 78.0865 7.27457 84.4402 12.4312 89.5969 18.785 89.5969 25.1387 89.5969 30.2954 84.6244 30.2954 78.2707 30.2954 73.114 26.8883 68.7861 22.192 67.4049L22.192 56.9074C26.8883 55.4341 30.2954 51.1061 30.2954 46.0416 30.2954 40.977 26.7962 36.557 22.1 35.1758L22.1 24.6783C26.7962 23.205 30.2954 18.877 30.2954 13.8125ZM13.9966 13.8125C13.9966 11.1421 16.1145 9.02415 18.785 9.02415 21.4554 9.02415 23.5733 11.1421 23.5733 13.8125 23.5733 16.4829 21.4554 18.6008 18.785 18.6008 16.1145 18.6008 13.9966 16.3908 13.9966 13.8125ZM23.5733 78.2707C23.5733 80.9411 21.4554 83.059 18.785 83.059 16.1145 83.059 13.9966 80.9411 13.9966 78.2707 13.9966 75.6003 16.1145 73.4823 18.785 73.4823 21.4554 73.4823 23.5733 75.6923 23.5733 78.2707ZM23.5733 46.0416C23.5733 48.712 21.4554 50.8299 18.785 50.8299 16.1145 50.8299 13.9966 48.712 13.9966 46.0416 13.9966 43.3712 16.1145 41.2532 18.785 41.2532 21.4554 41.2532 23.5733 43.3712 23.5733 46.0416Z" stroke="#000000" stroke-width="2.36111" transform="matrix(1.03119 0 0 1 395 1897)"/><path d="M41.2532 17.1275 81.4015 17.1275C83.2432 17.1275 84.7165 15.6541 84.7165 13.8125 84.7165 11.9708 83.2432 10.4975 81.4015 10.4975L41.2532 10.4975C39.4116 10.4975 37.9383 11.9708 37.9383 13.8125 37.9383 15.6541 39.4116 17.1275 41.2532 17.1275Z" stroke="#000000" stroke-width="2.36111" transform="matrix(1.03119 0 0 1 395 1897)"/><path d="M81.4015 42.7266 41.2532 42.7266C39.4116 42.7266 37.9383 44.1999 37.9383 46.0416 37.9383 47.8832 39.4116 49.3566 41.2532 49.3566L81.4015 49.3566C83.2432 49.3566 84.7165 47.8832 84.7165 46.0416 84.7165 44.1999 83.2432 42.7266 81.4015 42.7266Z" stroke="#000000" stroke-width="2.36111" transform="matrix(1.03119 0 0 1 395 1897)"/><path d="M81.4015 74.9557 41.2532 74.9557C39.4116 74.9557 37.9383 76.429 37.9383 78.2707 37.9383 80.1123 39.4116 81.5857 41.2532 81.5857L81.4015 81.5857C83.2432 81.5857 84.7165 80.1123 84.7165 78.2707 84.7165 76.429 83.2432 74.9557 81.4015 74.9557Z" stroke="#000000" stroke-width="2.36111" transform="matrix(1.03119 0 0 1 395 1897)"/><text font-family="Arial,Arial_MSFontService,sans-serif" font-weight="700" font-size="5" transform="matrix(0.949551 0 0 0.920831 395 2003)">Created by Adrien Coquet</text><text font-family="Arial,Arial_MSFontService,sans-serif" font-weight="700" font-size="5" transform="matrix(0.949551 0 0 0.920831 395 2007)">from the Noun Project</text></g></g></g><path d="M110.622 2727.27C63.7628 2727.27 25.5319 2765.5 25.5319 2812.36 25.5319 2859.21 63.7628 2897.45 110.622 2897.45 129.976 2897.45 147.885 2890.95 162.209 2880L238.701 2956.57C243.132 2960.99 250.403 2960.99 254.833 2956.57 259.264 2952.14 259.264 2944.88 254.833 2940.43L178.252 2863.94C189.209 2849.62 195.713 2831.71 195.713 2812.36 195.713 2765.5 157.482 2727.27 110.622 2727.27ZM110.622 2749.96C145.219 2749.96 173.022 2777.76 173.022 2812.36 173.022 2846.95 145.219 2874.75 110.622 2874.75 76.0261 2874.75 48.2227 2846.95 48.2227 2812.36 48.2227 2777.76 76.0261 2749.96 110.622 2749.96Z" transform="matrix(1.02578 0 0 1 329 -866.737)"/><text font-family="Arial,Arial_MSFontService,sans-serif" font-weight="700" font-size="5" transform="matrix(2.91 0 0 2.83688 329 2161)">Created by il Capitano</text><text font-family="Arial,Arial_MSFontService,sans-serif" font-weight="700" font-size="5" transform="matrix(2.91 0 0 2.83688 329 2175)">from the Noun Project</text></g></svg>
