<svg width="291" height="288" xmlns="http://www.w3.org/2000/svg" xmlns:xlink="http://www.w3.org/1999/xlink" xml:space="preserve" overflow="hidden"><defs><clipPath id="clip0"><rect x="941" y="1250" width="291" height="288"/></clipPath><clipPath id="clip1"><rect x="1006" y="1313" width="92" height="95"/></clipPath><clipPath id="clip2"><rect x="1006" y="1313" width="92" height="95"/></clipPath></defs><g clip-path="url(#clip0)" transform="translate(-941 -1250)"><g clip-path="url(#clip1)"><g clip-path="url(#clip2)"><g><path d="M30.2954 13.8125C30.2954 7.45873 25.1387 2.30208 18.785 2.30208 12.4312 2.30208 7.27457 7.45873 7.27457 13.8125 7.27457 18.9691 10.6816 23.297 15.3779 24.6783L15.3779 35.0837C10.6816 36.557 7.27457 40.8849 7.27457 45.9495 7.27457 51.0141 10.6816 55.4341 15.3779 56.8153L15.3779 67.2207C10.6816 68.694 7.27457 73.0219 7.27457 78.0865 7.27457 84.4402 12.4312 89.5969 18.785 89.5969 25.1387 89.5969 30.2954 84.6244 30.2954 78.2707 30.2954 73.114 26.8883 68.7861 22.192 67.4049L22.192 56.9074C26.8883 55.4341 30.2954 51.1061 30.2954 46.0416 30.2954 40.977 26.7962 36.557 22.1 35.1758L22.1 24.6783C26.7962 23.205 30.2954 18.877 30.2954 13.8125ZM13.9966 13.8125C13.9966 11.1421 16.1145 9.02415 18.785 9.02415 21.4554 9.02415 23.5733 11.1421 23.5733 13.8125 23.5733 16.4829 21.4554 18.6008 18.785 18.6008 16.1145 18.6008 13.9966 16.3908 13.9966 13.8125ZM23.5733 78.2707C23.5733 80.9411 21.4554 83.059 18.785 83.059 16.1145 83.059 13.9966 80.9411 13.9966 78.2707 13.9966 75.6003 16.1145 73.4823 18.785 73.4823 21.4554 73.4823 23.5733 75.6923 23.5733 78.2707ZM23.5733 46.0416C23.5733 48.712 21.4554 50.8299 18.785 50.8299 16.1145 50.8299 13.9966 48.712 13.9966 46.0416 13.9966 43.3712 16.1145 41.2532 18.785 41.2532 21.4554 41.2532 23.5733 43.3712 23.5733 46.0416Z" stroke="#00B050" stroke-width="2.36111" transform="matrix(1.01998 0 0 1 1007 1313)"/><path d="M41.2532 17.1275 81.4015 17.1275C83.2432 17.1275 84.7165 15.6541 84.7165 13.8125 84.7165 11.9708 83.2432 10.4975 81.4015 10.4975L41.2532 10.4975C39.4116 10.4975 37.9383 11.9708 37.9383 13.8125 37.9383 15.6541 39.4116 17.1275 41.2532 17.1275Z" stroke="#00B050" stroke-width="2.36111" transform="matrix(1.01998 0 0 1 1007 1313)"/><path d="M81.4015 42.7266 41.2532 42.7266C39.4116 42.7266 37.9383 44.1999 37.9383 46.0416 37.9383 47.8832 39.4116 49.3566 41.2532 49.3566L81.4015 49.3566C83.2432 49.3566 84.7165 47.8832 84.7165 46.0416 84.7165 44.1999 83.2432 42.7266 81.4015 42.7266Z" stroke="#00B050" stroke-width="2.36111" transform="matrix(1.01998 0 0 1 1007 1313)"/><path d="M81.4015 74.9557 41.2532 74.9557C39.4116 74.9557 37.9383 76.429 37.9383 78.2707 37.9383 80.1123 39.4116 81.5857 41.2532 81.5857L81.4015 81.5857C83.2432 81.5857 84.7165 80.1123 84.7165 78.2707 84.7165 76.429 83.2432 74.9557 81.4015 74.9557Z" stroke="#00B050" stroke-width="2.36111" transform="matrix(1.01998 0 0 1 1007 1313)"/><text font-family="Arial,Arial_MSFontService,sans-serif" font-weight="700" font-size="5" transform="matrix(0.93923 0 0 0.920831 1007 1419)">Created by Adrien Coquet</text><text font-family="Arial,Arial_MSFontService,sans-serif" font-weight="700" font-size="5" transform="matrix(0.93923 0 0 0.920831 1007 1423)">from the Noun Project</text></g></g></g><path d="M111.008 2736.77C63.985 2736.77 25.6209 2775.13 25.6209 2822.16 25.6209 2869.17 63.985 2907.54 111.008 2907.54 130.429 2907.54 148.4 2901.02 162.774 2890.04L239.533 2966.87C243.979 2971.31 251.275 2971.31 255.721 2966.87 260.167 2962.43 260.167 2955.14 255.721 2950.67L178.873 2873.92C189.868 2859.55 196.395 2841.58 196.395 2822.16 196.395 2775.13 158.031 2736.77 111.008 2736.77ZM111.008 2759.54C145.725 2759.54 173.625 2787.44 173.625 2822.16 173.625 2856.87 145.725 2884.77 111.008 2884.77 76.291 2884.77 48.3907 2856.87 48.3907 2822.16 48.3907 2787.44 76.291 2759.54 111.008 2759.54Z" fill="#00B050" transform="matrix(1.02221 0 0 1 941 -1461.15)"/><text fill="#00B050" font-family="Arial,Arial_MSFontService,sans-serif" font-weight="700" font-size="5" transform="matrix(2.91 0 0 2.84676 941 1577)">Created by il Capitano</text><text fill="#00B050" font-family="Arial,Arial_MSFontService,sans-serif" font-weight="700" font-size="5" transform="matrix(2.91 0 0 2.84676 941 1592)">from the Noun Project</text></g></svg>
