<svg xmlns="http://www.w3.org/2000/svg" xmlns:xlink="http://www.w3.org/1999/xlink" id="Layer_2" data-name="Layer 2" viewBox="6.27 6.15 105.77 50.5">
  <defs>
    <style>
      .cls-1 {
        fill: #00b050;
      }

      .cls-1, .cls-2, .cls-3 {
        stroke-width: 0px;
      }

      .cls-3, .cls-4 {
        fill: none;
      }

      .cls-5 {
        clip-path: url(#clippath);
      }

      .cls-6 {
        clip-path: url(#clippath-3);
      }

      .cls-4 {
        stroke: #00b050;
        stroke-width: .52px;
      }
    </style>
    <clipPath id="clippath">
      <rect class="cls-3" x="15.09" y="14.27" width="19.92" height="20.76"/>
    </clipPath>
    <clipPath id="clippath-1">
      <rect class="cls-3" x="14.6" y="13.88" width="19.72" height="20.56"/>
    </clipPath>
    <clipPath id="clippath-2">
      <rect class="cls-3" x="14.6" y="13.88" width="19.72" height="20.56"/>
    </clipPath>
    <clipPath id="clippath-3">
      <rect class="cls-3" width="63.36" height="62.88"/>
    </clipPath>
  </defs>
  <g id="Layer_1-2" data-name="Layer 1">
    <g class="cls-5">
      <path class="cls-2" d="M20.5,24.44c0,.58-.47,1.04-1.06,1.04s-1.06-.46-1.06-1.04.47-1.04,1.06-1.04,1.06.46,1.06,1.04M20.5,31.42c0,.58-.47,1.04-1.06,1.04s-1.06-.46-1.06-1.04.47-1.04,1.06-1.04,1.06.48,1.06,1.04M18.38,17.46c0-.58.47-1.04,1.06-1.04s1.06.46,1.06,1.04-.47,1.04-1.06,1.04-1.06-.48-1.06-1.04M21.98,17.46c0-1.38-1.14-2.49-2.54-2.49s-2.54,1.12-2.54,2.49c0,1.12.75,2.05,1.79,2.35v2.25c-1.04.32-1.79,1.26-1.79,2.35s.75,2.05,1.79,2.35v2.25c-1.04.32-1.79,1.26-1.79,2.35,0,1.38,1.14,2.49,2.54,2.49s2.54-1.08,2.54-2.45c0-1.12-.75-2.05-1.79-2.35v-2.27c1.04-.32,1.79-1.26,1.79-2.35s-.77-2.05-1.81-2.35v-2.27c1.04-.32,1.81-1.26,1.81-2.35"/>
      <path class="cls-4" d="M20.5,24.44c0,.58-.47,1.04-1.06,1.04s-1.06-.46-1.06-1.04.47-1.04,1.06-1.04,1.06.46,1.06,1.04ZM20.5,31.42c0,.58-.47,1.04-1.06,1.04s-1.06-.46-1.06-1.04.47-1.04,1.06-1.04,1.06.48,1.06,1.04ZM18.38,17.46c0-.58.47-1.04,1.06-1.04s1.06.46,1.06,1.04-.47,1.04-1.06,1.04-1.06-.48-1.06-1.04ZM21.98,17.46c0-1.38-1.14-2.49-2.54-2.49s-2.54,1.12-2.54,2.49c0,1.12.75,2.05,1.79,2.35v2.25c-1.04.32-1.79,1.26-1.79,2.35s.75,2.05,1.79,2.35v2.25c-1.04.32-1.79,1.26-1.79,2.35,0,1.38,1.14,2.49,2.54,2.49s2.54-1.08,2.54-2.45c0-1.12-.75-2.05-1.79-2.35v-2.27c1.04-.32,1.79-1.26,1.79-2.35s-.77-2.05-1.81-2.35v-2.27c1.04-.32,1.81-1.26,1.81-2.35Z"/>
      <path class="cls-2" d="M24.4,18.18h8.87c.41,0,.73-.32.73-.72s-.33-.72-.73-.72h-8.87c-.41,0-.73.32-.73.72s.33.72.73.72"/>
      <path class="cls-4" d="M24.4,18.18h8.87c.41,0,.73-.32.73-.72s-.33-.72-.73-.72h-8.87c-.41,0-.73.32-.73.72s.33.72.73.72Z"/>
      <path class="cls-2" d="M33.27,23.72h-8.87c-.41,0-.73.32-.73.72s.33.72.73.72h8.87c.41,0,.73-.32.73-.72s-.33-.72-.73-.72"/>
      <path class="cls-4" d="M33.27,23.72h-8.87c-.41,0-.73.32-.73.72s.33.72.73.72h8.87c.41,0,.73-.32.73-.72s-.33-.72-.73-.72Z"/>
      <path class="cls-2" d="M33.27,30.7h-8.87c-.41,0-.73.32-.73.72s.33.72.73.72h8.87c.41,0,.73-.32.73-.72s-.33-.72-.73-.72"/>
      <path class="cls-4" d="M33.27,30.7h-8.87c-.41,0-.73.32-.73.72s.33.72.73.72h8.87c.41,0,.73-.32.73-.72s-.33-.72-.73-.72Z"/>
    </g>
    <g class="cls-6">
      <path class="cls-1" d="M25.06,11.08c7.64,0,13.78,6.04,13.78,13.55s-6.14,13.55-13.78,13.55-13.78-6.04-13.78-13.55,6.14-13.55,13.78-13.55M25.06,6.16C14.71,6.16,6.27,14.46,6.27,24.63s8.44,18.47,18.8,18.47c4.27,0,8.23-1.41,11.39-3.79l16.9,16.62c.98.96,2.58.96,3.56,0,.98-.96.98-2.54,0-3.5l-16.92-16.61c2.42-3.11,3.86-7,3.86-11.2,0-10.17-8.44-18.47-18.8-18.47"/>
    </g>
    <g>
      <path class="cls-1" d="M59.54,31.05l-.82-2.16h-6.98l-.82,2.2c-.32.86-.59,1.44-.82,1.74s-.6.45-1.11.45c-.44,0-.82-.16-1.16-.48s-.5-.68-.5-1.09c0-.23.04-.48.12-.73s.21-.6.39-1.04l4.39-11.16c.12-.32.28-.71.45-1.15s.36-.82.56-1.12.46-.54.79-.72.72-.28,1.2-.28.89.09,1.21.28.59.42.79.71.37.6.5.93.31.78.52,1.33l4.49,11.09c.35.84.53,1.46.53,1.84s-.17.76-.5,1.1-.73.5-1.2.5c-.27,0-.51-.05-.7-.15s-.36-.23-.49-.4-.28-.43-.43-.77-.28-.65-.39-.92ZM52.65,26.28h5.13l-2.59-7.09-2.54,7.09Z"/>
      <path class="cls-1" d="M79.87,27.57c0,.55-.13,1.14-.4,1.78s-.69,1.26-1.27,1.88-1.32,1.11-2.21,1.49-1.95.57-3.14.57c-.91,0-1.73-.09-2.47-.26s-1.42-.44-2.02-.8-1.16-.84-1.67-1.44c-.45-.54-.84-1.14-1.16-1.81s-.56-1.38-.72-2.14-.24-1.56-.24-2.41c0-1.38.2-2.62.6-3.71s.98-2.03,1.73-2.81,1.63-1.37,2.64-1.78,2.08-.61,3.22-.61c1.39,0,2.63.28,3.71.83s1.92,1.24,2.5,2.06.87,1.59.87,2.31c0,.4-.14.75-.42,1.05s-.62.46-1.02.46c-.45,0-.78-.11-1-.32s-.47-.57-.74-1.09c-.45-.85-.99-1.49-1.6-1.91s-1.37-.63-2.27-.63c-1.43,0-2.57.54-3.42,1.63s-1.27,2.63-1.27,4.63c0,1.34.19,2.45.56,3.33s.91,1.55,1.59,1.99,1.49.66,2.41.66c1,0,1.85-.25,2.54-.74s1.21-1.22,1.56-2.19c.15-.45.33-.82.55-1.11s.57-.43,1.05-.43c.41,0,.77.14,1.07.43s.45.65.45,1.08Z"/>
      <path class="cls-1" d="M94.32,18.5h-7.84v4.22h7.22c.53,0,.93.12,1.19.36s.39.55.39.94-.13.71-.39.96-.66.37-1.2.37h-7.22v4.89h8.11c.55,0,.96.13,1.24.38s.42.59.42,1.01-.14.74-.42.99-.69.38-1.24.38h-9.46c-.76,0-1.3-.17-1.63-.5s-.5-.88-.5-1.63v-12.91c0-.5.07-.91.22-1.22s.38-.55.7-.69.72-.22,1.21-.22h9.19c.55,0,.97.12,1.24.37s.4.57.4.97-.13.73-.4.98-.68.37-1.24.37Z"/>
      <path class="cls-1" d="M112.04,27.84c0,1.04-.27,1.97-.8,2.8s-1.32,1.48-2.35,1.95-2.25.7-3.67.7c-1.7,0-3.09-.32-4.2-.96-.78-.46-1.42-1.08-1.9-1.85s-.73-1.52-.73-2.24c0-.42.15-.78.44-1.08s.67-.45,1.12-.45c.37,0,.68.12.93.35s.47.58.65,1.04c.22.55.46,1,.71,1.37s.61.67,1.07.91,1.07.36,1.82.36c1.03,0,1.87-.24,2.51-.72s.97-1.08.97-1.8c0-.57-.17-1.03-.52-1.39s-.8-.63-1.35-.81-1.29-.39-2.21-.6c-1.23-.29-2.27-.63-3.1-1.01s-1.49-.91-1.98-1.58-.73-1.5-.73-2.49.26-1.79.77-2.52,1.26-1.3,2.24-1.69,2.12-.59,3.45-.59c1.05,0,1.97.13,2.74.39s1.41.61,1.92,1.04.88.89,1.11,1.37.35.94.35,1.39c0,.41-.15.79-.44,1.12s-.66.5-1.1.5c-.4,0-.7-.1-.91-.3s-.43-.53-.67-.98c-.31-.65-.69-1.15-1.12-1.52s-1.14-.54-2.11-.54c-.9,0-1.62.2-2.17.59s-.83.87-.83,1.42c0,.34.09.64.28.89s.45.46.77.64.66.32,1,.42.89.25,1.66.45c.97.23,1.85.48,2.63.75s1.45.61,2,1,.98.88,1.29,1.48.46,1.33.46,2.2Z"/>
    </g>
  </g>
</svg>
