<svg width="2461" height="329" xmlns="http://www.w3.org/2000/svg" xmlns:xlink="http://www.w3.org/1999/xlink" xml:space="preserve" overflow="hidden"><g transform="translate(-7 -2189)"><path d="M9.50013 2226.81C9.50013 2207.31 25.3085 2191.5 44.8092 2191.5L2430.19 2191.5C2449.69 2191.5 2465.5 2207.31 2465.5 2226.81L2465.5 2480.19C2465.5 2499.69 2449.69 2515.5 2430.19 2515.5L44.8092 2515.5C25.3085 2515.5 9.50013 2499.69 9.50013 2480.19Z" stroke="#000000" stroke-width="4.58333" stroke-miterlimit="8" fill="#FFFFFF" fill-rule="evenodd"/><rect x="667" y="2345" width="1132" height="36" fill="#A7D5FF"/><rect x="169" y="2331" width="509" height="50.9998" fill="#A7D5FF"/><rect x="473" y="2347" width="231" height="19" fill="#CC7FFF"/><path d="M2057 2345 2057.49 2427.5" stroke="#000000" stroke-width="2.29167" stroke-miterlimit="8" stroke-dasharray="2.29167 2.29167" fill="none" fill-rule="evenodd"/><rect x="377" y="2340" width="99" height="27.0002" fill="#FCEBA7"/><text font-family="Calibri,Calibri_MSFontService,sans-serif" font-style="italic" font-weight="700" font-size="41" transform="matrix(1 0 0 1 50.9605 2254)">Imminent Mortality </text><rect x="169" y="2294" width="1888" height="43.0002" fill="#CB7F7F"/><text font-family="Calibri,Calibri_MSFontService,sans-serif" font-style="italic" font-weight="400" font-size="31" transform="matrix(1 0 0 1 1972.45 2464)">End of Record</text><path d="M24.0001 1886C17.3726 1886 12 1881.41 12 1875.74L12 955.272C12 949.609 6.62743 945.017-3.75179e-15 945.017 6.62743 945.017 12 940.426 12 934.762L12 10.255C12 4.59133 17.3726 0 24.0001 0" stroke="#000000" stroke-width="2.29167" stroke-miterlimit="8" fill="none" fill-rule="evenodd" transform="matrix(1.83697e-16 1 1 -1.83697e-16 171 2266)"/><text font-family="Calibri,Calibri_MSFontService,sans-serif" font-style="italic" font-weight="400" font-size="31" transform="matrix(1 0 0 1 767.592 2450)">Gap / Target Relative to Every Trigger</text><rect x="831" y="2356" width="99" height="25.9998" fill="#A7D5FF"/><rect x="831" y="2336" width="99" height="31" fill="#FCEBA7"/><rect x="1145" y="2344" width="163" height="37.0002" fill="#A7D5FF"/><rect x="1267" y="2332" width="99" height="34" fill="#FCEBA7"/><rect x="1703" y="2356" width="329" height="25" fill="#A7D5FF"/><rect x="1703" y="2336" width="99" height="30" fill="#FCEBA7"/><rect x="929" y="2342" width="231" height="24" fill="#CC7FFF"/><rect x="1366" y="2342" width="231" height="24" fill="#CC7FFF"/><rect x="1801" y="2345" width="231" height="21" fill="#CC7FFF"/><path d="M231.376 2327.19 2245.38 2327.19 2245.38 2347.81 231.376 2347.81ZM231.375 2337.5 272.625 2368.44 169.5 2337.5 272.625 2306.56ZM2245.37 2337.5 2204.12 2306.56 2307.25 2337.5 2204.12 2368.44Z"/><path d="M367.5 2337C367.5 2331.75 372.201 2327.5 378 2327.5 383.799 2327.5 388.5 2331.75 388.5 2337 388.5 2342.25 383.799 2346.5 378 2346.5 372.201 2346.5 367.5 2342.25 367.5 2337Z" stroke="#000000" stroke-width="4.58333" stroke-miterlimit="8" fill="#FFFFFF" fill-rule="evenodd"/><path d="M2046.5 2336.5C2046.5 2331.53 2051.2 2327.5 2057 2327.5 2062.8 2327.5 2067.5 2331.53 2067.5 2336.5 2067.5 2341.47 2062.8 2345.5 2057 2345.5 2051.2 2345.5 2046.5 2341.47 2046.5 2336.5Z" stroke="#000000" stroke-width="4.58333" stroke-miterlimit="8" fill="#FFFFFF" fill-rule="evenodd"/><path d="M821.5 2337.5C821.5 2332.53 826.201 2328.5 832 2328.5 837.799 2328.5 842.5 2332.53 842.5 2337.5 842.5 2342.47 837.799 2346.5 832 2346.5 826.201 2346.5 821.5 2342.47 821.5 2337.5Z" stroke="#000000" stroke-width="4.58333" stroke-miterlimit="8" fill="#FFFFFF" fill-rule="evenodd"/><path d="M1257.5 2337C1257.5 2331.75 1262.2 2327.5 1268 2327.5 1273.8 2327.5 1278.5 2331.75 1278.5 2337 1278.5 2342.25 1273.8 2346.5 1268 2346.5 1262.2 2346.5 1257.5 2342.25 1257.5 2337Z" stroke="#000000" stroke-width="4.58333" stroke-miterlimit="8" fill="#FFFFFF" fill-rule="evenodd"/><path d="M1693.5 2337C1693.5 2331.75 1698.2 2327.5 1704 2327.5 1709.8 2327.5 1714.5 2331.75 1714.5 2337 1714.5 2342.25 1709.8 2346.5 1704 2346.5 1698.2 2346.5 1693.5 2342.25 1693.5 2337Z" stroke="#000000" stroke-width="4.58333" stroke-miterlimit="8" fill="#FFFFFF" fill-rule="evenodd"/><text font-family="Calibri,Calibri_MSFontService,sans-serif" font-style="italic" font-weight="400" font-size="31" transform="matrix(1 0 0 1 960.291 2243)">Trigger on _ANY_EVENT</text><path d="M386.167 2390.85 466.833 2390.85 466.833 2393.15 386.167 2393.15ZM386.167 2392 395.333 2401.17 377 2392 395.333 2382.83ZM466.833 2392 457.667 2382.83 476 2392 457.667 2401.17Z"/><path d="M486.167 2390.85 695.533 2390.85 695.533 2393.15 486.167 2393.15ZM486.167 2392 495.333 2401.17 477 2392 495.333 2382.83ZM695.533 2392 686.367 2382.83 704.7 2392 686.367 2401.17Z"/><text font-family="Calibri,Calibri_MSFontService,sans-serif" font-style="italic" font-weight="400" font-size="31" transform="matrix(1 0 0 1 408.327 2426)">2h</text><text font-family="Calibri,Calibri_MSFontService,sans-serif" font-style="italic" font-weight="400" font-size="31" transform="matrix(1 0 0 1 563.62 2426)">24h</text><path d="M1160 2381C1160 2387.35 1155.6 2392.5 1150.17 2392.5L1005.68 2392.5C1000.25 2392.5 995.852 2397.65 995.852 2404 995.852 2397.65 991.453 2392.5 986.025 2392.5L840.827 2392.5C835.399 2392.5 831 2387.35 831 2381" stroke="#000000" stroke-width="2.29167" stroke-miterlimit="8" fill="none" fill-rule="evenodd"/></g></svg>
