<svg width="2461" height="339" xmlns="http://www.w3.org/2000/svg" xmlns:xlink="http://www.w3.org/1999/xlink" xml:space="preserve" overflow="hidden"><g transform="translate(-7 -1801)"><path d="M9.50013 1838.7C9.50013 1819.26 25.2592 1803.5 44.699 1803.5L2430.3 1803.5C2449.74 1803.5 2465.5 1819.26 2465.5 1838.7L2465.5 2091.3C2465.5 2110.74 2449.74 2126.5 2430.3 2126.5L44.699 2126.5C25.2592 2126.5 9.50013 2110.74 9.50013 2091.3Z" stroke="#000000" stroke-width="4.58333" stroke-miterlimit="8" fill="#FFFFFF" fill-rule="evenodd"/><rect x="667" y="1961" width="1132" height="32" fill="#A7D5FF"/><rect x="667" y="1960" width="231" height="17.9999" fill="#CC7FFF"/><path d="M2059 1959 2059.49 2041.5" stroke="#000000" stroke-width="2.29167" stroke-miterlimit="8" stroke-dasharray="2.29167 2.29167" fill="none" fill-rule="evenodd"/><rect x="571" y="1968" width="99" height="25.0001" fill="#A7D5FF"/><rect x="571" y="1953" width="99" height="25.0001" fill="#FCEBA7"/><text font-family="Calibri,Calibri_MSFontService,sans-serif" font-style="italic" font-weight="700" font-size="41" transform="matrix(1 0 0 1 50.9605 1866)">Imminent Mortality </text><rect x="572" y="1905" width="1487" height="43" fill="#CB7F7F"/><rect x="169" y="1905" width="403" height="89" fill="#A7D5FF"/><text font-family="Calibri,Calibri_MSFontService,sans-serif" font-style="italic" font-weight="400" font-size="31" transform="matrix(1 0 0 1 508.092 2111)">Admission</text><text font-family="Calibri,Calibri_MSFontService,sans-serif" font-style="italic" font-weight="400" font-size="31" transform="matrix(1 0 0 1 1933.49 2076)">Discharge OR Death </text><text font-family="Calibri,Calibri_MSFontService,sans-serif" font-style="italic" font-weight="400" font-size="31" transform="matrix(1 0 0 1 1950.68 2113)">OR End of Record</text><path d="M23.9124 1485C17.3092 1485 11.9562 1480.43 11.9562 1474.78L11.9562 754.307C11.9562 748.664 6.60322 744.09-1.47706e-15 744.09 6.60322 744.09 11.9562 739.516 11.9562 733.873L11.9562 10.2167C11.9562 4.57416 17.3092-2.95407e-15 23.9124-2.95407e-15" stroke="#000000" stroke-width="2.29167" stroke-miterlimit="8" fill="none" fill-rule="evenodd" transform="matrix(1.83697e-16 1 1 -1.83697e-16 572 1878)"/><text font-family="Calibri,Calibri_MSFontService,sans-serif" font-style="italic" font-weight="400" font-size="31" transform="matrix(1 0 0 1 1077.79 2113)">Gap / Target Relative to Every Trigger</text><path d="M571 1962 571.491 2073.38" stroke="#000000" stroke-width="2.29167" stroke-miterlimit="8" stroke-dasharray="2.29167 2.29167" fill="none" fill-rule="evenodd"/><rect x="917" y="1968" width="99" height="26.0001" fill="#A7D5FF"/><rect x="917" y="1953" width="99" height="26.0001" fill="#FCEBA7"/><rect x="1155" y="1961" width="163" height="32" fill="#A7D5FF"/><rect x="1307" y="1952" width="99" height="25.9998" fill="#FCEBA7"/><rect x="1703" y="1967" width="329" height="26.0001" fill="#A7D5FF"/><rect x="1703" y="1952" width="99" height="25.9998" fill="#FCEBA7"/><rect x="1016" y="1960" width="231" height="17.9999" fill="#CC7FFF"/><rect x="1406" y="1960" width="231" height="17.9999" fill="#CC7FFF"/><rect x="1801" y="1960" width="231" height="17.9999" fill="#CC7FFF"/><path d="M231.376 1942.19 2245.38 1942.19 2245.38 1962.81 231.376 1962.81ZM231.375 1952.5 272.625 1983.44 169.5 1952.5 272.625 1921.56ZM2245.37 1952.5 2204.12 1921.56 2307.25 1952.5 2204.12 1983.44Z"/><path d="M561.5 1952.5C561.5 1947.53 566.201 1943.5 572 1943.5 577.799 1943.5 582.5 1947.53 582.5 1952.5 582.5 1957.47 577.799 1961.5 572 1961.5 566.201 1961.5 561.5 1957.47 561.5 1952.5Z" stroke="#000000" stroke-width="4.58333" stroke-miterlimit="8" fill="#FFFFFF" fill-rule="evenodd"/><path d="M2048.5 1950C2048.5 1944.75 2053.42 1940.5 2059.5 1940.5 2065.58 1940.5 2070.5 1944.75 2070.5 1950 2070.5 1955.25 2065.58 1959.5 2059.5 1959.5 2053.42 1959.5 2048.5 1955.25 2048.5 1950Z" stroke="#000000" stroke-width="4.58333" stroke-miterlimit="8" fill="#FFFFFF" fill-rule="evenodd"/><path d="M907.5 1952.5C907.5 1947.53 912.425 1943.5 918.5 1943.5 924.575 1943.5 929.5 1947.53 929.5 1952.5 929.5 1957.47 924.575 1961.5 918.5 1961.5 912.425 1961.5 907.5 1957.47 907.5 1952.5Z" stroke="#000000" stroke-width="4.58333" stroke-miterlimit="8" fill="#FFFFFF" fill-rule="evenodd"/><path d="M1297.5 1952.5C1297.5 1947.53 1302.2 1943.5 1308 1943.5 1313.8 1943.5 1318.5 1947.53 1318.5 1952.5 1318.5 1957.47 1313.8 1961.5 1308 1961.5 1302.2 1961.5 1297.5 1957.47 1297.5 1952.5Z" stroke="#000000" stroke-width="4.58333" stroke-miterlimit="8" fill="#FFFFFF" fill-rule="evenodd"/><path d="M1693.5 1952.5C1693.5 1947.53 1698.2 1943.5 1704 1943.5 1709.8 1943.5 1714.5 1947.53 1714.5 1952.5 1714.5 1957.47 1709.8 1961.5 1704 1961.5 1698.2 1961.5 1693.5 1957.47 1693.5 1952.5Z" stroke="#000000" stroke-width="4.58333" stroke-miterlimit="8" fill="#FFFFFF" fill-rule="evenodd"/><text font-family="Calibri,Calibri_MSFontService,sans-serif" font-style="italic" font-weight="400" font-size="31" transform="matrix(1 0 0 1 1167.46 1855)">Trigger on _ANY_EVENT</text><path d="M581.167 2002.85 661.833 2002.85 661.833 2005.15 581.167 2005.15ZM581.167 2004 590.333 2013.17 572 2004 590.333 1994.83ZM661.833 2004 652.667 1994.83 671 2004 652.667 2013.17Z"/><path d="M680.167 2002.85 889.533 2002.85 889.533 2005.15 680.167 2005.15ZM680.167 2004 689.333 2013.17 671 2004 689.333 1994.83ZM889.533 2004 880.367 1994.83 898.7 2004 880.367 2013.17Z"/><text font-family="Calibri,Calibri_MSFontService,sans-serif" font-style="italic" font-weight="400" font-size="31" transform="matrix(1 0 0 1 603.788 2038)">2h</text><text font-family="Calibri,Calibri_MSFontService,sans-serif" font-style="italic" font-weight="400" font-size="31" transform="matrix(1 0 0 1 757.648 2038)">24h</text></g></svg>
