<svg width="2460" height="333" xmlns="http://www.w3.org/2000/svg" xmlns:xlink="http://www.w3.org/1999/xlink" xml:space="preserve" overflow="hidden"><g transform="translate(-8 -1430)"><path d="M10.5002 1467.81C10.5002 1448.31 26.3081 1432.5 45.8082 1432.5L2430.19 1432.5C2449.69 1432.5 2465.5 1448.31 2465.5 1467.81L2465.5 1721.19C2465.5 1740.69 2449.69 1756.5 2430.19 1756.5L45.8082 1756.5C26.3081 1756.5 10.5002 1740.69 10.5002 1721.19Z" stroke="#000000" stroke-width="4.58333" stroke-miterlimit="8" fill="#FFFFFF" fill-rule="evenodd"/><path d="M2059 1584 2059.49 1695.38" stroke="#000000" stroke-width="2.29167" stroke-miterlimit="8" stroke-dasharray="2.29167 2.29167" fill="none" fill-rule="evenodd"/><path d="M578 1587 578.491 1698.38" stroke="#000000" stroke-width="2.29167" stroke-miterlimit="8" stroke-dasharray="2.29167 2.29167" fill="none" fill-rule="evenodd"/><text font-family="Calibri,Calibri_MSFontService,sans-serif" font-style="italic" font-weight="700" font-size="41" transform="matrix(1 0 0 1 50.9605 1491)">In</text><text font-family="Calibri,Calibri_MSFontService,sans-serif" font-style="italic" font-weight="700" font-size="41" transform="matrix(1 0 0 1 83.6168 1491)">-</text><text font-family="Calibri,Calibri_MSFontService,sans-serif" font-style="italic" font-weight="700" font-size="41" transform="matrix(1 0 0 1 96.2209 1491)">hospital Mortality </text><rect x="572" y="1531" width="12.0001" height="89" fill="#CB7F7F"/><rect x="169" y="1531" width="403" height="89" fill="#A7D5FF"/><rect x="584" y="1531" width="276" height="46.0001" fill="#A7D5FF"/><rect x="584" y="1578" width="276" height="40.9999" fill="#FCEBA7"/><rect x="860" y="1530" width="275" height="89" fill="#FCEBA7"/><rect x="1134" y="1530" width="925" height="89" fill="#CC7FFF"/><path d="M231.376 1568.19 2245.38 1568.19 2245.38 1588.81 231.376 1588.81ZM231.375 1578.5 272.625 1609.44 169.5 1578.5 272.625 1547.56ZM2245.37 1578.5 2204.12 1547.56 2307.25 1578.5 2204.12 1609.44Z"/><path d="M567.5 1578C567.5 1572.75 572.425 1568.5 578.5 1568.5 584.575 1568.5 589.5 1572.75 589.5 1578 589.5 1583.25 584.575 1587.5 578.5 1587.5 572.425 1587.5 567.5 1583.25 567.5 1578Z" stroke="#000000" stroke-width="4.58333" stroke-miterlimit="8" fill="#FFFFFF" fill-rule="evenodd"/><path d="M2048.5 1575.5C2048.5 1570.53 2053.42 1566.5 2059.5 1566.5 2065.58 1566.5 2070.5 1570.53 2070.5 1575.5 2070.5 1580.47 2065.58 1584.5 2059.5 1584.5 2053.42 1584.5 2048.5 1580.47 2048.5 1575.5Z" stroke="#000000" stroke-width="4.58333" stroke-miterlimit="8" fill="#FFFFFF" fill-rule="evenodd"/><path d="M593.167 1519.85 850.223 1519.85 850.223 1522.15 593.167 1522.15ZM593.167 1521 602.333 1530.17 584 1521 602.333 1511.83ZM850.223 1521 841.056 1511.83 859.389 1521 841.056 1530.17Z"/><path d="M869.167 1519.85 1126.22 1519.85 1126.22 1522.15 869.167 1522.15ZM869.167 1521 878.333 1530.17 860 1521 878.333 1511.83ZM1126.22 1521 1117.06 1511.83 1135.39 1521 1117.06 1530.17Z"/><text font-family="Calibri,Calibri_MSFontService,sans-serif" font-style="italic" font-weight="400" font-size="31" transform="matrix(1 0 0 1 696.656 1510)">24h</text><text font-family="Calibri,Calibri_MSFontService,sans-serif" font-style="italic" font-weight="400" font-size="31" transform="matrix(1 0 0 1 970.547 1508)">24h</text><text font-family="Calibri,Calibri_MSFontService,sans-serif" font-style="italic" font-weight="400" font-size="31" transform="matrix(1 0 0 1 508.092 1736)">Admission</text><text font-family="Calibri,Calibri_MSFontService,sans-serif" font-style="italic" font-weight="400" font-size="31" transform="matrix(1 0 0 1 1917.3 1734)">Discharge OR Death</text><path d="M860 1619C860 1625.63 855.409 1631 849.745 1631L376.024 1631C370.36 1631 365.769 1636.37 365.769 1643 365.769 1636.37 361.178 1631 355.514 1631L179.255 1631C173.591 1631 169 1625.63 169 1619" stroke="#000000" stroke-width="2.29167" stroke-miterlimit="8" fill="none" fill-rule="evenodd"/><text font-family="Calibri,Calibri_MSFontService,sans-serif" font-style="italic" font-weight="400" font-size="31" transform="matrix(1 0 0 1 301.122 1683)">&gt;= 5 Events</text><path d="M1134 1638C1134 1644.35 1129.6 1649.5 1124.17 1649.5L866.422 1649.5C860.995 1649.5 856.595 1654.65 856.595 1661 856.595 1654.65 852.195 1649.5 846.768 1649.5L587.826 1649.5C582.399 1649.5 578 1644.35 578 1638" stroke="#000000" stroke-width="2.29167" stroke-miterlimit="8" fill="none" fill-rule="evenodd"/><text font-family="Calibri,Calibri_MSFontService,sans-serif" font-style="italic" font-weight="400" font-size="31" transform="matrix(1 0 0 1 709.003 1699)">No Discharge OR Death</text></g></svg>
