<svg width="2460" height="303" xmlns="http://www.w3.org/2000/svg" xmlns:xlink="http://www.w3.org/1999/xlink" xml:space="preserve" overflow="hidden"><g transform="translate(-8 -1050)"><path d="M10.5002 1084.98C10.5002 1067.04 25.04 1052.5 42.9757 1052.5L2433.02 1052.5C2450.96 1052.5 2465.5 1067.04 2465.5 1084.98L2465.5 1318.02C2465.5 1335.96 2450.96 1350.5 2433.02 1350.5L42.9757 1350.5C25.04 1350.5 10.5002 1335.96 10.5002 1318.02Z" stroke="#000000" stroke-width="4.58333" stroke-miterlimit="8" fill="#FFFFFF" fill-rule="evenodd"/><path d="M38.0002 1089.83C38.0002 1081.64 44.6414 1075 52.8338 1075L254.167 1075C262.359 1075 269 1081.64 269 1089.83L269 1149.17C269 1157.36 262.359 1164 254.167 1164L52.8338 1164C44.6414 1164 38.0002 1157.36 38.0002 1149.17Z" fill="#CB7F7F" fill-rule="evenodd"/><text font-family="Calibri,Calibri_MSFontService,sans-serif" font-style="italic" font-weight="400" font-size="31" transform="matrix(1 0 0 1 108.286 1130)">Trigger</text><path d="M38.0002 1254.83C38.0002 1246.64 44.6414 1240 52.8338 1240L254.167 1240C262.359 1240 269 1246.64 269 1254.83L269 1314.17C269 1322.36 262.359 1329 254.167 1329L52.8338 1329C44.6414 1329 38.0002 1322.36 38.0002 1314.17Z" fill="#A7D5FF" fill-rule="evenodd"/><text font-family="Calibri,Calibri_MSFontService,sans-serif" font-style="italic" font-weight="400" font-size="31" transform="matrix(1 0 0 1 120.318 1295)">Input</text><path d="M1266 1089.83C1266 1081.64 1272.64 1075 1280.83 1075L1482.17 1075C1490.36 1075 1497 1081.64 1497 1089.83L1497 1149.17C1497 1157.36 1490.36 1164 1482.17 1164L1280.83 1164C1272.64 1164 1266 1157.36 1266 1149.17Z" fill="#FCEBA7" fill-rule="evenodd"/><text font-family="Calibri,Calibri_MSFontService,sans-serif" font-style="italic" font-weight="400" font-size="31" transform="matrix(1 0 0 1 1355.64 1130)">Gap</text><path d="M1266 1254.83C1266 1246.64 1272.64 1240 1280.83 1240L1482.17 1240C1490.36 1240 1497 1246.64 1497 1254.83L1497 1314.17C1497 1322.36 1490.36 1329 1482.17 1329L1280.83 1329C1272.64 1329 1266 1322.36 1266 1314.17Z" fill="#CC7FFF" fill-rule="evenodd"/><text font-family="Calibri,Calibri_MSFontService,sans-serif" font-style="italic" font-weight="400" font-size="31" transform="matrix(1 0 0 1 1339.89 1295)">Target</text><text font-family="Calibri,Calibri_MSFontService,sans-serif" font-style="italic" font-weight="400" font-size="41" transform="matrix(1 0 0 1 328.581 1133)">A prediction is made for every trigger event</text><text font-family="Calibri,Calibri_MSFontService,sans-serif" font-style="italic" font-weight="400" font-size="41" transform="matrix(1 0 0 1 329.488 1298)">Specifies valid inputs of the prediction model</text><text font-family="Calibri,Calibri_MSFontService,sans-serif" font-style="italic" font-weight="400" font-size="41" transform="matrix(1 0 0 1 1557.36 1134)">Applies restrictions and criteria for cohort filtering</text><text font-family="Calibri,Calibri_MSFontService,sans-serif" font-style="italic" font-weight="400" font-size="41" transform="matrix(1 0 0 1 1557.36 1300)">Specifies events that determine the task label</text></g></svg>
